<?xml version="1.0" encoding="utf-8"?>
<!-- Generator: Adobe Illustrator 25.4.1, SVG Export Plug-In . SVG Version: 6.00 Build 0)  -->
<svg version="1.1" id="Слой_1" xmlns="http://www.w3.org/2000/svg" xmlns:xlink="http://www.w3.org/1999/xlink" x="0px" y="0px"
	 viewBox="0 0 595.28 841.89" style="enable-background:new 0 0 595.28 841.89;" xml:space="preserve">
<style type="text/css">
	.st0{fill:#F6F6F6;}
	.st1{fill:none;stroke:#000000;stroke-miterlimit:10;}
	.st2{fill:#FFFFFF;stroke:#000000;stroke-width:0.25;stroke-miterlimit:10;}
</style>
<g>
	<g>
		<path d="M174.56,309.58c3.28-2.73,6.56-5.47,9.83-8.2c0.62-0.52-0.27-1.4-0.88-0.88c-3.28,2.73-6.56,5.47-9.83,8.2
			C173.06,309.21,173.95,310.09,174.56,309.58L174.56,309.58z"/>
	</g>
</g>
<g>
	<g>
		<path d="M185.2,303.81c7.67-1.7,15.33-3.46,23.02-5.1c3.39-0.72,6.89-0.72,8.67,2.71c1.33,2.57,1.37,5.64,1.39,8.46
			c0.08,15.53-1.11,31.08-3.57,46.41c-1.38,8.57-3.15,17.07-5.3,25.48c-0.09,0.36,0.19,0.83,0.6,0.79c7.24-0.61,14.09-3.1,20.6-6.25
			c6.65-3.23,13.07-6.99,19.44-10.74c12.68-7.45,25.05-15.43,37.1-23.85c23.94-16.73,46.64-35.2,68.19-54.9
			c12.17-11.14,23.98-22.67,35.46-34.53c-0.33-0.25-0.65-0.5-0.98-0.76c-10.29,17.82-20.58,35.63-30.86,53.45
			c-10.04,17.39-20.35,34.66-30.06,52.24c-5.21,9.43-10.02,19.11-13.53,29.32c-0.26,0.76,0.94,1.09,1.21,0.33
			c6.34-18.44,16.84-35.15,26.54-51.95c10.21-17.67,20.41-35.34,30.62-53.02c5.72-9.91,11.45-19.83,17.17-29.74
			c0.35-0.61-0.48-1.27-0.98-0.76c-20.18,20.85-41.4,40.71-63.82,59.15c-22.45,18.47-46.11,35.5-70.99,50.54
			c-6.94,4.2-13.95,8.31-21.12,12.1c-7.49,3.95-15.43,7.39-23.96,8.11c0.2,0.26,0.4,0.53,0.6,0.79c4.03-15.78,6.73-31.9,8.02-48.14
			c0.65-8.17,0.96-16.37,0.89-24.57c-0.04-5.25-1.15-12.37-7.83-12.4c-2-0.01-3.98,0.54-5.91,0.97c-2.32,0.52-4.65,1.03-6.97,1.55
			c-4.65,1.03-9.3,2.06-13.94,3.09C184.08,302.78,184.41,303.99,185.2,303.81L185.2,303.81z"/>
	</g>
</g>
<g id="XMLID_00000174567278741246462440000011203386182796097944_">
	<g>
		<path class="st0" d="M190,271c-45.22-2.69-93.41-5.56-99-26c-4.94-18.04,27.99-48.98,60.67-61.5c0,0,3.86-1.45,7.33-2.5
			c80.17-24.28,177.58,47.58,171,74C324.03,278.97,230.47,273.41,190,271z"/>
	</g>
	<g>
		<path class="st1" d="M91,245c5.59,20.44,53.78,23.31,99,26c40.47,2.41,134.03,7.97,140-16c6.58-26.42-90.83-98.28-171-74
			c-3.47,1.05-7.33,2.5-7.33,2.5C118.99,196.02,86.06,226.96,91,245z"/>
	</g>
</g>
<path class="st2" d="M174.06,223.53"/>
<path class="st1" d="M151.79,183.45c4.43,12.39,11.29,19.28,15.31,22.64c20.15,16.88,51.8,14.52,72,0.77
	c8.58-5.84,13.89-12.92,16.94-17.78"/>
</svg>
